<?xml version="1.0" encoding="UTF-8"?><svg width="287.48" height="157.44" viewBox="0 0 76.06 41.66" xmlns="http://www.w3.org/2000/svg"><path d="M2.4 0A2.4 2.4 0 0 0 0 2.4v36.86a2.4 2.4 0 0 0 2.4 2.4h71.26a2.4 2.4 0 0 0 2.4-2.4V2.4a2.4 2.4 0 0 0-2.4-2.4H2.4zm19.81 11.19h.36l1.04 6.1-.4.1c-.47-1.26-1-2.3-1.58-3.15a6.32 6.32 0 0 0-1.96-1.96 4.5 4.5 0 0 0-2.44-.68 3.5 3.5 0 0 0-2.69 1.09 6.78 6.78 0 0 0-1.45 3.1 23.27 23.27 0 0 0-.43 4.82c0 1.4.12 2.67.36 3.79.25 1.1.61 2.05 1.09 2.84.49.78 1.07 1.38 1.75 1.8.7.41 1.48.61 2.36.61.73 0 1.43-.11 2.11-.35a6.62 6.62 0 0 0 1.9-1.12c.6-.49 1.12-1.1 1.56-1.83l.25.18c-.29.5-.64 1-1.04 1.47a7.12 7.12 0 0 1-5.49 2.47 9.76 9.76 0 0 1-4.9-1.15 7.52 7.52 0 0 1-3.05-3.35 12.2 12.2 0 0 1-1.04-5.28c0-1.37.21-2.63.63-3.79.43-1.15 1.02-2.15 1.78-3a8.1 8.1 0 0 1 6.1-2.69c1.12 0 2.07.22 2.87.64.81.4 1.47.86 1.98 1.37l.33-2.03zm17.4 0h.38l1.12 6.1-.4.07a14.4 14.4 0 0 0-1.53-2.92 7.59 7.59 0 0 0-2.03-2.06 4.42 4.42 0 0 0-2.57-.78c-.73 0-1.39.19-1.98.58-.58.39-1.07.97-1.47 1.75-.4.76-.69 1.73-.9 2.9-.2 1.15-.3 2.5-.3 4.04 0 1.47.12 2.76.36 3.88.24 1.1.57 2.03.99 2.8.42.74.92 1.3 1.5 1.67.59.38 1.22.56 1.9.56.43 0 .83-.04 1.22-.13.4-.08.75-.2 1.1-.38.33-.17.62-.39.86-.66V23a2 2 0 0 0-.16-.94c-.1-.17-.33-.26-.68-.28l-1.22-.05v-.3h7.5v.3l-1.1.05c-.32.02-.54.12-.66.3-.1.17-.15.5-.15 1v7.16h-.28l-2.8-1.45c-.4.36-.82.66-1.24.92-.42.25-.9.44-1.42.55-.51.14-1.1.2-1.78.2-1.6 0-3-.35-4.22-1.06-1.22-.71-2.16-1.76-2.84-3.15s-1.02-3.1-1.02-5.16c0-1.49.21-2.83.64-4.03a9.16 9.16 0 0 1 1.85-3.1 8.24 8.24 0 0 1 6.3-2.75c1.1 0 2.04.22 2.82.64.78.42 1.41.88 1.9 1.37l.3-2.03zm6.01.38h6.13l4.5 12.6h.04l4.42-12.6h6v.3l-1.27.16c-.3.03-.51.12-.66.28-.14.15-.19.48-.16.99l.84 15.14c.04.42.1.72.18.88.1.17.32.28.66.33l1.24.18v.28H59.6v-.3l1.33-.18c.3-.03.51-.12.63-.25.14-.16.19-.49.15-1l-.78-15.56h-.03l-5.03 14.42h-2.2l-5.24-14.42h-.03l-.89 15.57c-.01.45.02.77.1.96.1.17.34.27.72.3l1.24.18v.28H44.8v-.3l1.24-.16c.3-.05.52-.16.64-.35.11-.19.18-.52.2-1l.91-14.98c.04-.45 0-.77-.12-.94-.12-.18-.37-.3-.74-.35l-1.3-.16v-.3z" fill="#b24d4e"/></svg>